<svg width="48" height="48" viewBox="0 0 48 48" fill="none" xmlns="http://www.w3.org/2000/svg">
<path d="M23.712 17.136C26.784 17.28 27.576 19.896 27.624 21.12H31.92C31.728 16.368 28.344 13.464 23.64 13.464C18.336 13.464 14.4 16.8 14.4 24.336C14.4 28.992 16.632 34.512 23.616 34.512C28.944 34.512 31.8 30.552 31.872 27.432H27.576C27.504 28.848 26.496 30.744 23.664 30.888C20.52 30.792 19.2 28.344 19.2 24.336C19.2 17.4 22.272 17.184 23.712 17.136ZM24 0C10.752 0 0 10.752 0 24C0 37.248 10.752 48 24 48C37.248 48 48 37.248 48 24C48 10.752 37.248 0 24 0ZM24 43.2C13.416 43.2 4.8 34.584 4.8 24C4.8 13.416 13.416 4.8 24 4.8C34.584 4.8 43.2 13.416 43.2 24C43.2 34.584 34.584 43.2 24 43.2Z" fill="#7A91AD"/>
</svg>
